<svg width="931" height="841" viewBox="0 0 931 841" fill="none" xmlns="http://www.w3.org/2000/svg">
<path d="M113.725 170.409L113.725 170.41C113.596 170.583 113.356 170.899 112.991 171.382L116.977 174.4L112.991 171.382L112.988 171.385C107.79 178.249 80.9203 213.727 55.3313 256.166C42.5369 277.385 30.0037 300.44 20.6552 322.598C11.3493 344.655 5.00004 366.277 5.00004 384.493C5.00004 447.687 57.4942 498.68 122.001 498.68C149.89 498.68 175.517 489.156 195.631 473.245C187.972 501.455 183.531 528.197 183.531 552.339C183.531 708.517 310.091 835.073 466.265 835.073H466.267C622.446 835.073 749 708.513 749 552.339C749 505.294 732.206 448.068 707.306 388.98C729.59 403.331 756.302 411.68 785.001 411.68C862.756 411.68 926 350.351 926 274.383C926 251.778 917.865 224.644 905.974 196.923C894.037 169.092 878.101 140.185 862.044 113.888C845.978 87.5765 829.737 63.79 817.148 46.1866C805.044 29.2612 796.131 17.7932 794.032 15.4144C789.396 9.48073 780.351 9.54832 775.814 15.6153L775.814 15.6156C775.654 15.8294 775.36 16.2172 774.917 16.8L774.915 16.8037C768.609 25.1122 736.008 68.0638 704.965 119.436C689.444 145.123 674.252 173.011 662.927 199.795C653.617 221.814 646.784 243.397 644.679 262.554C609.973 200.374 572.441 142.044 542.037 97.3507C509.581 49.6415 485.044 17.1719 480.738 12.2408C473.463 2.51787 458.812 2.58728 451.641 12.4469L451.64 12.4471C451.299 12.9164 450.682 13.7522 449.786 14.9654L449.763 14.9976C431.789 39.3412 309.024 205.613 236.697 363.604C233.776 349.195 228.279 333.572 221.389 317.796C211.429 294.992 198.36 271.433 185.274 250.062C159.683 208.267 133.674 174.279 130.126 170.214C125.949 164.876 117.805 164.941 113.725 170.409ZM677.377 346.991C669.67 336.223 663.634 324.247 659.627 311.417C665.749 323.247 671.687 335.127 677.377 346.991ZM474.923 699.233L474.922 699.228C474.016 696.366 472.169 693.919 469.468 692.517C466.767 691.115 463.705 691.014 460.845 691.919C415.473 706.277 366.233 681.171 351.699 635.243C350.793 632.38 348.946 629.933 346.245 628.532C343.544 627.13 340.482 627.029 337.622 627.933C334.76 628.839 332.313 630.686 330.912 633.388C329.51 636.088 329.409 639.151 330.313 642.01C348.581 699.737 409.882 731.569 467.607 713.302C470.466 712.397 472.912 710.552 474.315 707.855C475.719 705.157 475.826 702.095 474.923 699.233ZM453.529 72.1789C459.784 63.3388 472.75 63.3387 479.005 72.1789C512.522 119.55 571.015 205.559 621.107 296.931C646.154 342.618 669.052 389.559 685.677 433.621C702.33 477.757 712.55 518.647 712.55 552.339C712.55 688.446 602.368 798.622 466.267 798.622C330.16 798.622 219.985 688.44 219.985 552.339C219.985 518.648 230.205 477.759 246.858 433.623C263.483 389.562 286.381 342.621 311.427 296.933C361.519 205.56 420.011 119.551 453.529 72.1789ZM772.529 58.744C778.673 50.0985 791.329 50.0985 797.473 58.744C815.708 84.4032 842.203 123.637 864.119 163.977C875.077 184.148 884.844 204.509 891.859 223.528C898.899 242.61 903.048 260.02 903.048 274.383C903.048 337.641 850.368 389.08 785.001 389.08C719.63 389.08 666.954 337.638 666.954 274.383C666.954 260.021 671.103 242.611 678.142 223.529C685.158 204.51 694.924 184.149 705.882 163.978C727.798 123.638 754.294 84.4035 772.529 58.744ZM109.576 211.099C115.668 202.424 128.333 202.424 134.425 211.099C149.751 232.924 170.826 264.636 188.049 296.889C196.66 313.015 204.263 329.192 209.703 344.275C215.164 359.417 218.334 373.155 218.334 384.493C218.334 436.206 175.358 478.281 122.001 478.281C68.6408 478.281 25.6679 436.204 25.6679 384.493C25.6679 373.156 28.8377 359.417 34.2987 344.276C39.7387 329.192 47.3414 313.016 55.9526 296.889C73.1752 264.637 94.2498 232.924 109.576 211.099Z" fill="white" stroke="white" stroke-width="10"/>
</svg>
