<svg xmlns="http://www.w3.org/2000/svg" xmlns:xlink="http://www.w3.org/1999/xlink" viewBox="0 0 128 20"><path d="M 59.459 1.318 C 58.38 1.318 57.494 2.192 57.494 3.307 C 57.494 4.4 58.38 5.274 59.459 5.274 C 60.539 5.274 61.424 4.4 61.424 3.307 C 61.424 2.192 60.539 1.318 59.459 1.318 Z M 61.187 6.28 L 57.754 6.28 L 57.754 18.063 L 61.187 18.063 Z M 37.715 1.755 L 41.062 1.755 L 41.062 6.28 L 43.631 6.28 L 43.631 9.428 L 41.062 9.428 L 41.062 13.582 C 41.062 14.194 41.537 14.675 42.12 14.675 L 43.61 14.675 L 43.61 18.019 L 42.12 18.019 C 39.701 18.019 37.715 16.03 37.715 13.56 L 37.715 9.406 L 36.16 9.406 L 36.16 6.258 L 37.715 6.258 Z M 51.815 6.018 C 50.261 6.018 49.03 6.674 48.555 7.701 L 48.555 1.755 L 45.121 1.755 L 45.121 18.041 L 48.555 18.041 L 48.555 11.439 C 48.555 10.062 49.44 9.1 50.692 9.1 C 51.966 9.1 52.679 9.931 52.679 11.33 L 52.679 18.063 L 56.112 18.063 L 56.112 10.893 C 56.112 7.832 54.558 6.018 51.815 6.018 Z M 66.089 6.258 L 66.089 7.876 C 66.607 6.695 67.859 6.018 69.436 5.996 C 69.673 5.996 69.975 6.018 70.343 6.061 L 70.343 9.341 C 69.997 9.275 69.608 9.231 69.198 9.231 C 67.233 9.231 66.089 10.346 66.089 12.292 L 66.089 18.041 L 62.655 18.041 L 62.655 6.258 Z M 79.995 7.81 C 79.65 6.783 78.289 6.061 76.54 6.061 C 74.899 6.061 73.517 6.652 72.416 7.832 C 71.336 8.991 70.775 10.455 70.775 12.161 C 70.775 13.866 71.336 15.309 72.416 16.511 C 73.517 17.67 74.899 18.26 76.54 18.26 C 78.289 18.26 79.65 17.538 79.995 16.511 L 79.995 18.063 L 83.429 18.063 L 83.429 1.755 L 79.995 1.755 Z M 79.304 14.259 C 78.721 14.828 78.008 15.09 77.166 15.09 C 76.346 15.09 75.633 14.806 75.072 14.259 C 74.489 13.669 74.208 12.969 74.208 12.161 C 74.208 11.352 74.489 10.652 75.072 10.084 C 75.655 9.494 76.346 9.209 77.166 9.209 C 78.03 9.209 78.743 9.494 79.304 10.084 C 79.909 10.652 80.211 11.352 80.211 12.161 C 80.211 12.969 79.909 13.669 79.304 14.259 Z M 93.34 6.324 L 96.45 11.92 L 98.544 6.28 L 101.913 6.28 L 97.119 18.741 L 93.34 11.964 L 89.561 18.741 L 84.789 6.28 L 88.158 6.28 L 90.231 11.92 Z M 107.57 5.996 C 105.799 5.996 104.309 6.564 103.143 7.701 C 101.999 8.816 101.416 10.302 101.416 12.139 L 101.416 12.248 C 101.416 14.084 101.999 15.571 103.143 16.686 C 104.331 17.779 105.843 18.347 107.743 18.347 C 109.514 18.347 110.96 17.997 112.062 17.276 L 112.062 14.237 C 110.982 15.003 109.6 15.374 107.937 15.374 C 106.123 15.374 104.936 14.478 104.871 13.079 L 113.4 13.079 C 113.444 12.729 113.465 12.335 113.465 11.942 C 113.465 10.259 112.904 8.86 111.824 7.723 C 110.744 6.564 109.298 5.996 107.57 5.996 Z M 104.871 10.827 C 104.892 10.281 105.173 9.822 105.691 9.45 C 106.231 9.078 106.836 8.881 107.57 8.881 C 108.93 8.881 109.989 9.778 109.989 10.827 Z M 121.649 6.061 C 123.29 6.061 124.672 6.652 125.752 7.832 C 126.853 9.013 127.415 10.434 127.415 12.139 C 127.415 13.844 126.853 15.287 125.752 16.489 C 124.672 17.648 123.29 18.238 121.649 18.238 C 119.9 18.238 118.54 17.517 118.194 16.489 L 118.194 18.041 L 114.761 18.041 L 114.761 1.755 L 118.194 1.755 L 118.194 7.81 C 118.54 6.783 119.9 6.061 121.649 6.061 Z M 121.023 15.09 C 121.844 15.09 122.535 14.828 123.118 14.259 C 123.701 13.669 123.981 12.969 123.981 12.161 C 123.981 11.352 123.701 10.652 123.118 10.084 C 122.556 9.494 121.844 9.209 121.023 9.209 C 120.181 9.209 119.468 9.494 118.864 10.084 C 118.281 10.652 117.978 11.352 117.978 12.161 C 117.978 12.969 118.281 13.669 118.864 14.259 C 119.447 14.806 120.159 15.09 121.023 15.09 Z" fill="rgb(255,255,255)"></path><g transform="translate(-0.089 0.667)" id="ss10875599144_2"><path d="M 0.001 18.667 L 0.001 0 L 30.026 0 L 30.026 18.667 Z" fill="transparent"></path><g><defs><linearGradient id="idss10875599144_4g-926470010" x1="0.12776720615029757" x2="0.8722327938497024" y1="0" y2="1"><stop offset="0" stop-color="rgb(242,19,164)" stop-opacity="1"></stop><stop offset="1" stop-color="rgb(82,4,191)" stop-opacity="1"></stop></linearGradient></defs><path d="M 0.082 1.571 C -0.217 0.816 0.34 0 1.156 0 L 6.223 0 C 6.699 0 7.121 0.283 7.298 0.721 L 11.331 10.778 C 11.44 11.048 11.44 11.351 11.331 11.628 L 8.794 17.944 C 8.406 18.908 7.033 18.908 6.645 17.944 Z M 9.869 1.537 C 9.597 0.789 10.155 0 10.957 0 L 15.371 0 C 15.861 0 16.296 0.303 16.459 0.755 L 20.125 10.812 C 20.214 11.061 20.214 11.338 20.125 11.594 L 17.922 17.64 C 17.554 18.652 16.112 18.652 15.745 17.64 Z M 19.778 0 C 18.962 0 18.405 0.816 18.704 1.571 L 25.267 17.944 C 25.655 18.908 27.028 18.908 27.416 17.944 L 29.953 11.628 C 30.062 11.351 30.062 11.048 29.953 10.778 L 25.92 0.721 C 25.743 0.283 25.321 0 24.845 0 Z" fill="url(#idss10875599144_4g-926470010)"></path></g></g></svg>